<svg width="24" height="24" viewBox="0 0 24 24" fill="none" xmlns="http://www.w3.org/2000/svg">
<path d="M18.2493 14.5854L19.4328 14.5854C20.4132 14.5854 21.208 13.7906 21.208 12.8102L21.208 4.5257C21.208 3.5452 20.4132 2.7504 19.4328 2.7504L18.2493 2.7504C17.2688 2.7504 16.474 3.5452 16.474 4.5257L16.474 12.8102C16.474 13.7906 17.2688 14.5854 18.2493 14.5854Z" stroke="black" stroke-width="1.5" stroke-linecap="round" stroke-linejoin="round"/>
<path d="M2.83965 11.7569L4.25985 4.6559C4.36815 4.111 4.66455 3.6215 5.09725 3.2732C5.53005 2.9248 6.07145 2.7398 6.62685 2.7504L14.1066 2.7504C14.7344 2.7504 15.3365 2.9998 15.7804 3.4437C16.2243 3.8876 16.4736 4.4897 16.4736 5.1174L16.4736 12.2184C16.4546 12.6742 16.3393 13.1207 16.1353 13.5287C15.9314 13.9366 15.6433 14.2968 15.2901 14.5854L14.3078 20.5029C14.2857 20.641 14.2312 20.7719 14.1489 20.8849C14.0666 20.9979 13.9588 21.0899 13.8343 21.1533C13.7097 21.2168 13.5719 21.2499 13.432 21.25C13.2922 21.2501 13.1544 21.2172 13.0297 21.1539L11.929 20.6095C11.2019 20.2499 10.6197 19.6522 10.2795 18.9158C9.93925 18.1794 9.86145 17.3487 10.0591 16.5619L10.5562 14.5973L5.15935 14.5973C4.80835 14.5973 4.46165 14.5193 4.14455 14.3689C3.82735 14.2185 3.54755 13.9994 3.32555 13.7275C3.10355 13.4556 2.94475 13.1377 2.86065 12.7969C2.77665 12.4561 2.76945 12.1008 2.83965 11.7569Z" stroke="black" stroke-width="1.5" stroke-linecap="round" stroke-linejoin="round"/>
</svg>
