<svg width="24" height="24" viewBox="0 0 24 24" fill="none" xmlns="http://www.w3.org/2000/svg">
<path d="M5.75074 9.41455H4.56724C3.5868 9.41455 2.79199 10.2094 2.79199 11.1898V19.4743C2.79199 20.4548 3.5868 21.2496 4.56724 21.2496H5.75074C6.73119 21.2496 7.526 20.4548 7.526 19.4743V11.1898C7.526 10.2094 6.73119 9.41455 5.75074 9.41455Z" stroke="black" stroke-width="1.5" stroke-linecap="round" stroke-linejoin="round"/>
<path d="M21.1603 12.2431L19.7401 19.3441C19.6318 19.889 19.3354 20.3785 18.9027 20.7268C18.4699 21.0752 17.9285 21.2602 17.3731 21.2496H9.89337C9.26561 21.2496 8.66355 21.0002 8.21965 20.5563C7.77575 20.1124 7.52637 19.5103 7.52637 18.8826V11.7816C7.54539 11.3258 7.66068 10.8793 7.86466 10.4713C8.06865 10.0634 8.3567 9.7032 8.70987 9.41456L9.69218 3.49705C9.71432 3.359 9.76876 3.22814 9.85107 3.11511C9.93337 3.00209 10.0412 2.91011 10.1657 2.84666C10.2903 2.78321 10.4281 2.75009 10.568 2.75C10.7078 2.74991 10.8456 2.78284 10.9703 2.84612L12.071 3.39054C12.7981 3.75007 13.3803 4.34778 13.7205 5.0842C14.0607 5.82062 14.1385 6.65133 13.9409 7.43811L13.4438 9.40272H18.8406C19.1916 9.40265 19.5383 9.48065 19.8554 9.63109C20.1726 9.78153 20.4524 10.0006 20.6744 10.2725C20.8964 10.5444 21.0552 10.8623 21.1393 11.2031C21.2233 11.5439 21.2305 11.8992 21.1603 12.2431Z" stroke="black" stroke-width="1.5" stroke-linecap="round" stroke-linejoin="round"/>
</svg>
