<svg width="186" height="60" viewBox="0 0 186 60" fill="none" xmlns="http://www.w3.org/2000/svg">
<path fill-rule="evenodd" clip-rule="evenodd" d="M14.3995 17.0996C15.6038 15.82 17.0088 14.6916 18.6013 13.7647C20.1938 12.8379 21.8658 12.1754 23.5673 11.7639L26.5764 18.3568C27.1603 19.6363 27.4523 20.2762 27.9292 20.2759C28.4061 20.2757 28.6976 19.6357 29.2805 18.3556L32.2751 11.7793C35.7142 12.6191 38.9127 14.4412 41.4227 17.1247L37.2921 23.0201C36.4865 24.1699 36.0838 24.7447 36.3226 25.1606C36.5615 25.5767 37.2565 25.5107 38.6469 25.3789L45.7443 24.7059C46.7786 28.2381 46.7314 31.9371 45.7225 35.3528L38.6354 34.7021C37.2478 34.5746 36.554 34.5111 36.3161 34.9269C36.0784 35.343 36.4809 35.9162 37.2859 37.0626L41.3917 42.9094C40.1892 44.1853 38.7869 45.3105 37.1983 46.2353C35.6095 47.16 33.9416 47.8215 32.2444 48.2332L29.289 41.7579C28.705 40.4784 28.413 39.8385 27.9361 39.8389C27.4592 39.8391 27.1677 40.479 26.5848 41.7591L23.6307 48.2464C20.1895 47.4274 16.9838 45.6264 14.4606 42.9643L18.5732 37.0946C19.3788 35.9449 19.7816 35.37 19.5426 34.9541C19.3038 34.5381 18.6087 34.6041 17.2185 34.7359L10.0902 35.4116C9.03107 31.8806 9.05633 28.1773 10.0461 24.7532L17.2299 25.4126C18.6175 25.5401 19.3113 25.6037 19.5491 25.1878C19.7869 24.7717 19.3844 24.1986 18.5794 23.0522L14.3995 17.0996Z" fill="#415FF1"/>
<path fill-rule="evenodd" clip-rule="evenodd" d="M45.7225 35.3528C46.7314 31.9371 46.7786 28.2381 45.7443 24.7059L38.6469 25.3789C37.2565 25.5107 36.5615 25.5767 36.3226 25.1606C36.0838 24.7447 36.4865 24.1699 37.2921 23.0201L41.4227 17.1247C38.9127 14.4412 35.7142 12.6191 32.2751 11.7793L29.2805 18.3556C28.6976 19.6357 28.4061 20.2757 27.9292 20.2759C27.4523 20.2762 27.1603 19.6363 26.5764 18.3568L23.5673 11.7639C21.8658 12.1754 20.1938 12.8379 18.6013 13.7647C17.0088 14.6916 15.6038 15.82 14.3995 17.0996L18.5794 23.0522C19.3844 24.1986 19.7869 24.7717 19.5491 25.1878C19.3113 25.6037 18.6175 25.5401 17.2299 25.4126L10.0461 24.7532C9.05633 28.1773 9.03107 31.8806 10.0902 35.4116L17.2185 34.7359C18.6087 34.6041 19.3038 34.5381 19.5426 34.9541C19.7816 35.37 19.3788 35.9449 18.5732 37.0946L14.4606 42.9643C16.9838 45.6264 20.1895 47.4274 23.6307 48.2464L26.5848 41.7591C27.1677 40.479 27.4592 39.8391 27.9361 39.8389C28.413 39.8385 28.705 40.4784 29.289 41.7579L32.2444 48.2332C33.9416 47.8215 35.6095 47.16 37.1983 46.2353C38.7869 45.3105 40.1892 44.1853 41.3917 42.9094L37.2859 37.0626C36.4809 35.9162 36.0784 35.343 36.3161 34.9269C36.554 34.5111 37.2478 34.5746 38.6354 34.7021L45.7225 35.3528Z" fill="#415FF1"/>
<path d="M65.3264 37.509C63.8661 37.509 62.5766 37.301 61.4576 36.885C60.3466 36.461 59.4658 35.817 58.8149 34.953C58.1721 34.0809 57.8269 32.981 57.7793 31.653C57.7793 31.5249 57.8427 31.461 57.9698 31.461H61.3862C61.4973 31.461 61.5648 31.521 61.5886 31.641C61.66 32.273 61.8187 32.825 62.0647 33.297C62.3108 33.761 62.6996 34.125 63.2313 34.389C63.7631 34.6449 64.4852 34.773 65.3979 34.773C66.1201 34.773 66.7311 34.697 67.2311 34.545C67.731 34.3929 68.1081 34.1529 68.362 33.825C68.6238 33.497 68.7548 33.069 68.7548 32.541C68.7548 31.997 68.5604 31.5729 68.1715 31.269C67.7906 30.965 67.2826 30.729 66.6478 30.561C66.0208 30.393 65.3264 30.245 64.5646 30.117C63.8107 29.981 63.0528 29.817 62.2909 29.625C61.5371 29.433 60.8425 29.165 60.2077 28.821C59.5807 28.469 59.0729 27.9969 58.684 27.405C58.3031 26.805 58.1126 26.0289 58.1126 25.077C58.1126 24.029 58.3745 23.1249 58.8983 22.365C59.422 21.597 60.18 21.005 61.1719 20.589C62.1719 20.1729 63.3822 19.965 64.8027 19.965C66.7549 19.965 68.362 20.369 69.6238 21.177C70.8936 21.9849 71.6514 23.289 71.8974 25.089C71.9132 25.2249 71.8537 25.293 71.7189 25.293H68.2905C68.1795 25.293 68.1159 25.233 68.1001 25.113C68.0128 24.3369 67.6715 23.745 67.0763 23.337C66.4811 22.929 65.6755 22.725 64.6598 22.725C63.8027 22.725 63.0965 22.8849 62.5409 23.205C61.9853 23.517 61.7076 24.021 61.7076 24.717C61.7076 25.229 61.8981 25.629 62.279 25.917C62.6679 26.1969 63.1798 26.417 63.8146 26.577C64.4494 26.7369 65.1479 26.8809 65.9097 27.009C66.6716 27.137 67.4334 27.297 68.1953 27.489C68.9572 27.681 69.6556 27.953 70.2904 28.305C70.9252 28.649 71.4332 29.121 71.8141 29.721C72.203 30.3129 72.3974 31.085 72.3974 32.037C72.3974 33.221 72.1117 34.221 71.5403 35.037C70.9689 35.8449 70.1515 36.461 69.0881 36.885C68.0325 37.301 66.7787 37.509 65.3264 37.509ZM78.2309 37.365C77.5405 37.365 76.8858 37.241 76.2668 36.993C75.6478 36.737 75.1439 36.3249 74.755 35.757C74.374 35.189 74.1836 34.437 74.1836 33.501L74.2074 27.309H72.8027C72.6757 27.309 72.6122 27.245 72.6122 27.117V24.957C72.6122 24.8289 72.6757 24.765 72.8027 24.765H74.1955L74.1836 21.861C74.1836 21.7329 74.247 21.669 74.374 21.669H77.5643C77.6913 21.669 77.7548 21.7329 77.7548 21.861L77.7429 24.765H80.4927C80.6197 24.765 80.6831 24.8289 80.6831 24.957V27.117C80.6831 27.245 80.6197 27.309 80.4927 27.309H77.731L77.7548 33.405C77.7548 33.933 77.8738 34.2969 78.1119 34.497C78.358 34.697 78.6753 34.797 79.0642 34.797C79.3499 34.797 79.6038 34.7769 79.8261 34.737C80.0561 34.697 80.2626 34.649 80.4451 34.593C80.5879 34.553 80.6593 34.6089 80.6593 34.761V36.717C80.6593 36.821 80.6117 36.893 80.5165 36.933C80.1674 37.053 79.7943 37.1529 79.3975 37.233C79.0086 37.3209 78.6199 37.365 78.2309 37.365ZM85.3895 37.413C84.0959 37.413 83.0563 36.993 82.2707 36.153C81.493 35.3049 81.1041 34.125 81.1041 32.613V30.021L81.0565 24.957C81.0565 24.8289 81.1199 24.765 81.2469 24.765H84.4848C84.6118 24.765 84.6753 24.8289 84.6753 24.957L84.6276 30.021V32.565C84.6276 33.237 84.8023 33.773 85.1514 34.173C85.5085 34.5729 85.9529 34.773 86.4847 34.773C86.9132 34.773 87.3299 34.637 87.7346 34.365C88.1473 34.0929 88.4845 33.6729 88.7464 33.105C89.0163 32.537 89.1512 31.8129 89.1512 30.933V30.021L89.1036 24.957C89.1036 24.8289 89.167 24.765 89.294 24.765H92.5795C92.7066 24.765 92.77 24.8289 92.77 24.957L92.7224 30.693V36.933C92.7224 37.061 92.6589 37.125 92.5319 37.125H89.4607C89.3416 37.125 89.2821 37.061 89.2821 36.933L89.3416 35.565C89.0639 35.925 88.7265 36.245 88.3298 36.525C87.9331 36.8049 87.4846 37.0209 86.9846 37.173C86.4927 37.3329 85.9609 37.413 85.3895 37.413ZM102.21 20.517C102.21 20.3889 102.273 20.325 102.401 20.325H105.591C105.718 20.325 105.781 20.3889 105.781 20.517L105.757 28.725L105.781 36.933C105.781 37.061 105.718 37.125 105.591 37.125H102.377C102.242 37.125 102.182 37.061 102.198 36.933L102.258 35.685C101.829 36.213 101.313 36.6249 100.71 36.921C100.107 37.217 99.4165 37.365 98.6388 37.365C97.4803 37.365 96.5041 37.085 95.7105 36.525C94.9248 35.957 94.3296 35.193 93.9249 34.233C93.5281 33.2649 93.3297 32.181 93.3297 30.981C93.3297 29.789 93.5439 28.7049 93.9725 27.729C94.409 26.753 95.028 25.977 95.8295 25.401C96.639 24.8169 97.5993 24.525 98.7103 24.525C100.186 24.525 101.353 25.029 102.21 26.037V20.517ZM99.6388 34.989C100.512 34.989 101.174 34.661 101.627 34.005C102.087 33.341 102.321 32.357 102.329 31.053C102.345 29.717 102.127 28.6929 101.674 27.981C101.222 27.269 100.567 26.909 99.7102 26.901C99.107 26.885 98.6031 27.0249 98.1984 27.321C97.7937 27.617 97.4881 28.061 97.2818 28.653C97.0755 29.237 96.9723 29.957 96.9723 30.813C96.9723 31.7409 97.0755 32.517 97.2818 33.141C97.4881 33.7569 97.7898 34.221 98.1865 34.533C98.5832 34.845 99.0674 34.997 99.6388 34.989ZM119.006 37.485C117.3 37.485 115.828 37.1169 114.59 36.381C113.352 35.637 112.396 34.613 111.721 33.309C111.055 32.0049 110.721 30.501 110.721 28.797C110.721 27.0129 111.058 25.461 111.733 24.141C112.415 22.8129 113.376 21.785 114.614 21.057C115.852 20.3289 117.308 19.965 118.983 19.965C120.181 19.965 121.284 20.153 122.292 20.529C123.3 20.897 124.161 21.5169 124.875 22.389C125.597 23.261 126.117 24.4449 126.435 25.941C126.474 26.085 126.419 26.157 126.268 26.157H123.101C122.99 26.157 122.923 26.1009 122.899 25.989C122.748 25.301 122.498 24.7209 122.149 24.249C121.808 23.769 121.367 23.405 120.828 23.157C120.296 22.901 119.665 22.773 118.935 22.773C117.967 22.773 117.149 23.013 116.483 23.493C115.816 23.973 115.312 24.6609 114.971 25.557C114.63 26.453 114.459 27.525 114.459 28.773C114.459 30.645 114.848 32.097 115.626 33.129C116.403 34.161 117.499 34.677 118.911 34.677C119.697 34.677 120.363 34.5369 120.911 34.257C121.459 33.977 121.899 33.573 122.232 33.045C122.566 32.5089 122.804 31.857 122.947 31.089C122.97 30.969 123.042 30.909 123.161 30.909H126.387C126.538 30.909 126.593 30.993 126.554 31.161C126.244 32.681 125.744 33.905 125.054 34.833C124.363 35.7609 123.506 36.437 122.482 36.861C121.467 37.277 120.308 37.485 119.006 37.485ZM130.76 36.933C130.76 37.061 130.697 37.125 130.57 37.125H127.427C127.3 37.125 127.237 37.061 127.237 36.933L127.308 28.725L127.237 20.517C127.237 20.3889 127.3 20.325 127.427 20.325H130.57C130.697 20.325 130.76 20.3889 130.76 20.517L130.689 28.725L130.76 36.933ZM137.769 37.437C136.404 37.437 135.253 37.161 134.317 36.609C133.38 36.0489 132.67 35.285 132.186 34.317C131.702 33.341 131.46 32.229 131.46 30.981C131.46 29.669 131.706 28.5249 132.198 27.549C132.698 26.565 133.412 25.805 134.34 25.269C135.277 24.725 136.396 24.453 137.697 24.453C139.713 24.453 141.265 25.085 142.352 26.349C143.439 27.605 143.998 29.3169 144.03 31.485C144.03 31.613 143.967 31.677 143.84 31.677H135.055C135.126 32.8449 135.388 33.6969 135.84 34.233C136.301 34.769 136.959 35.037 137.816 35.037C138.427 35.037 138.939 34.889 139.352 34.593C139.765 34.289 140.05 33.797 140.209 33.117C140.233 33.005 140.3 32.949 140.411 32.949H143.471C143.614 32.949 143.677 32.993 143.661 33.081C143.574 33.849 143.284 34.565 142.792 35.229C142.3 35.885 141.63 36.417 140.78 36.825C139.931 37.233 138.927 37.437 137.769 37.437ZM135.15 29.397H140.173C140.126 28.9569 140.007 28.541 139.816 28.149C139.634 27.7569 139.368 27.441 139.019 27.201C138.677 26.9529 138.245 26.829 137.721 26.829C136.999 26.829 136.428 27.045 136.007 27.477C135.586 27.9009 135.301 28.541 135.15 29.397ZM147.618 37.125C147.507 37.125 147.431 37.073 147.392 36.969L143.214 24.981C143.166 24.837 143.217 24.765 143.368 24.765H146.832C146.943 24.765 147.015 24.8169 147.047 24.921L149.666 34.005L152.594 24.921C152.626 24.8169 152.697 24.765 152.808 24.765H155.772C155.915 24.765 155.963 24.837 155.915 24.981L151.677 36.969C151.638 37.073 151.562 37.125 151.451 37.125H147.618ZM161.414 37.437C160.049 37.437 158.898 37.161 157.962 36.609C157.025 36.0489 156.315 35.285 155.831 34.317C155.347 33.341 155.105 32.229 155.105 30.981C155.105 29.669 155.351 28.5249 155.843 27.549C156.343 26.565 157.057 25.805 157.986 25.269C158.922 24.725 160.041 24.453 161.343 24.453C163.358 24.453 164.91 25.085 165.997 26.349C167.084 27.605 167.644 29.3169 167.676 31.485C167.676 31.613 167.612 31.677 167.485 31.677H158.7C158.771 32.8449 159.033 33.6969 159.486 34.233C159.946 34.769 160.605 35.037 161.462 35.037C162.073 35.037 162.585 34.889 162.997 34.593C163.41 34.289 163.696 33.797 163.854 33.117C163.878 33.005 163.946 32.949 164.057 32.949H167.116C167.259 32.949 167.322 32.993 167.307 33.081C167.219 33.849 166.929 34.565 166.438 35.229C165.946 35.885 165.275 36.417 164.426 36.825C163.577 37.233 162.573 37.437 161.414 37.437ZM158.795 29.397H163.819C163.771 28.9569 163.652 28.541 163.462 28.149C163.279 27.7569 163.013 27.441 162.664 27.201C162.323 26.9529 161.89 26.829 161.366 26.829C160.644 26.829 160.073 27.045 159.652 27.477C159.232 27.9009 158.946 28.541 158.795 29.397ZM171.794 36.933C171.794 37.061 171.731 37.125 171.604 37.125H168.437C168.31 37.125 168.247 37.061 168.247 36.933L168.318 30.933L168.247 24.957C168.247 24.8289 168.31 24.765 168.437 24.765H171.604C171.723 24.765 171.782 24.8289 171.782 24.957L171.699 26.853C172.175 26.117 172.802 25.569 173.58 25.209C174.357 24.849 175.191 24.669 176.08 24.669C176.262 24.669 176.46 24.689 176.675 24.729C176.786 24.753 176.841 24.825 176.841 24.945V27.225C176.841 27.3609 176.774 27.4209 176.639 27.405C176.568 27.3969 176.488 27.393 176.401 27.393C176.322 27.3849 176.246 27.381 176.175 27.381C175.334 27.381 174.584 27.5409 173.925 27.861C173.266 28.173 172.746 28.6449 172.366 29.277C171.985 29.901 171.794 30.6849 171.794 31.629V36.933Z" fill="#242424"/>
</svg>
